<svg width="32" height="32" viewBox="0 0 32 32" fill="none" xmlns="http://www.w3.org/2000/svg">
<path fill-rule="evenodd" clip-rule="evenodd" d="M9.40023 16H18.7242L17.4507 13.7905C17.3753 13.6773 17.2515 13.6058 17.1159 13.5972H11.0093C10.8737 13.6058 10.7499 13.6773 10.6745 13.7905L9.40023 16ZM8.24538 16L10.0443 12.8784C10.1509 12.7155 10.3285 12.613 10.5228 12.6022H17.5959C17.79 12.613 17.9673 12.7155 18.0737 12.8784L19.8743 16H26.1448C26.1451 15.8565 26.112 15.713 26.0457 15.5813L26.0406 15.5806L21.3608 7.45789C21.1991 7.21078 20.9294 7.05557 20.6347 7.03998H11.2678C10.9731 7.05557 10.7034 7.21078 10.5417 7.45789L5.85966 15.5806C5.79289 15.7124 5.75967 15.8562 5.76001 16H8.24538Z" fill="url(#paint0_linear_3465_1027)"/>
<path fill-rule="evenodd" clip-rule="evenodd" d="M5.76001 16C5.76035 16.1423 5.79356 16.2846 5.85966 16.415L6.93358 18.2763L8.24537 16H5.76001ZM9.40022 16H18.7242L20.5003 19.0816C20.562 19.2047 20.562 19.3496 20.5003 19.4727L17.4485 24.7659C17.3738 24.88 17.2497 24.9519 17.1137 24.96H15.3253L16.8908 22.2476C16.962 22.1068 16.962 21.9406 16.8908 21.7999L14.8788 18.3112C14.7926 18.1793 14.649 18.0962 14.4917 18.0874H10.469C10.313 18.0974 10.1707 18.1803 10.0849 18.3112L8.51942 21.0236L7.62122 19.4712C7.56101 19.3494 7.56101 19.2064 7.62122 19.0845L9.40022 16ZM19.8743 16H26.1448C26.1446 16.1425 26.1116 16.285 26.0457 16.4157L21.3637 24.5377C21.202 24.7848 20.9323 24.94 20.6376 24.9556H18.4955L21.6091 19.5599C21.697 19.3862 21.697 19.1811 21.6091 19.0075L19.8743 16ZM9.17293 22.1575L10.5526 24.5479C10.7131 24.7865 10.9751 24.9371 11.262 24.9556H14.0147C14.1122 24.9476 14.2009 24.8958 14.2557 24.8146L15.7922 22.1604C15.8366 22.0711 15.8366 21.9662 15.7922 21.8769L14.2601 19.2212C14.2052 19.1378 14.1143 19.0853 14.0147 19.0795H10.9505C10.851 19.0851 10.7602 19.1377 10.7058 19.2212L9.17293 21.8769C9.13009 21.9655 9.13009 22.0689 9.17293 22.1575Z" fill="url(#paint1_linear_3465_1027)"/>
<path fill-rule="evenodd" clip-rule="evenodd" d="M0 16C0 24.8366 7.16344 32 16 32C24.8366 32 32 24.8366 32 16H29.44C29.44 23.4227 23.4227 29.44 16 29.44C8.57729 29.44 2.56 23.4227 2.56 16H0Z" fill="url(#paint2_linear_3465_1027)"/>
<path fill-rule="evenodd" clip-rule="evenodd" d="M32 16C32 7.16344 24.8366 0 16 0C7.16344 0 0 7.16344 0 16H2.56C2.56 8.57729 8.57729 2.56 16 2.56C23.4227 2.56 29.44 8.57729 29.44 16H32Z" fill="url(#paint3_linear_3465_1027)"/>
<defs>
<linearGradient id="paint0_linear_3465_1027" x1="16" y1="7.03998" x2="16" y2="16" gradientUnits="userSpaceOnUse">
<stop stop-color="#FE01FA"/>
<stop offset="0.241071" stop-color="#FF0F6F"/>
<stop offset="0.519531" stop-color="#FF3D3D"/>
<stop offset="0.708633" stop-color="#FF851F"/>
<stop offset="1" stop-color="#FFDB01"/>
</linearGradient>
<linearGradient id="paint1_linear_3465_1027" x1="15.52" y1="24.96" x2="15.52" y2="16" gradientUnits="userSpaceOnUse">
<stop stop-color="#00EAFF"/>
<stop offset="0.252531" stop-color="#0080FF"/>
<stop offset="0.497394" stop-color="#8000FF"/>
<stop offset="0.749912" stop-color="#E619E6"/>
<stop offset="0.999136" stop-color="#FF0000"/>
</linearGradient>
<linearGradient id="paint2_linear_3465_1027" x1="16" y1="32" x2="16" y2="16" gradientUnits="userSpaceOnUse">
<stop offset="0.445" stop-color="#00EAFF"/>
<stop offset="0.61" stop-color="#0080FF"/>
<stop offset="0.715" stop-color="#8000FF"/>
<stop offset="0.87" stop-color="#E619E6"/>
<stop offset="0.999136" stop-color="#FF0000"/>
</linearGradient>
<linearGradient id="paint3_linear_3465_1027" x1="16" y1="1.17973e-07" x2="16" y2="16" gradientUnits="userSpaceOnUse">
<stop offset="0.445" stop-color="#FE01FA"/>
<stop offset="0.64" stop-color="#FF0F6F"/>
<stop offset="0.755" stop-color="#FF3D3D"/>
<stop offset="0.875" stop-color="#FF851F"/>
<stop offset="1" stop-color="#FFDB01"/>
</linearGradient>
</defs>
</svg>
